:SAMPLES-PER-SECOND 24
:FULLY-SPECIFIED
:DEGREES
309
root  0.980422 38.6122 48.5785 170.842 -72.7399 178.58
RightUpLeg  -10.938 -9.34601 -17.5958
RightLeg  36.9302 4.91388 3.7075
RightFoot  4.62368 -0.651206 4.86639
RightToes  -1.74623e-010 0 -2.59999e-017
Spine  6.27788 -3.35258 -22.3473
Spine1  18.4798 -10.3758 12.9807
HEad  -7.49242 -21.9911 17.5322
LeftShoulder1  1.25653 -2.24303 -15.0185
LeftArm  59.4787 -51.5344 -107.928
LeftForeArm  97.756 -70.3041 -143.556
LeftHand  0.401377 7.98574 18.4904
RightShoulder  3.62826 6.02051 32.2127
RightArm  -3.4142 -15.1151 37.6453
RightForeArm  10.683 12.7882 10.4728
RightHand  -0.477936 0.797364 -9.07341
LeftUpLeg  3.06531 13.992 12.8764
LeftLeg  25.724 4.83456 2.89161
LeftFoot  -9.76396 0.262169 -14.7453
LeftToes  -6.27559e-011 -2.10356e-011 8.24929e-012
310
root  0.705023 38.9019 48.6102 168.587 -73.7212 -178.102
RightUpLeg  -9.73965 -10.3979 -18.1238
RightLeg  32.995 8.27216 5.52018
RightFoot  4.42836 -1.01183 7.51069
RightToes  -1.74623e-010 0 -2.59999e-017
Spine  5.57695 -3.60509 -21.0403
Spine1  17.1051 -9.94585 12.306
HEad  -6.78402 -22.7684 18.113
LeftShoulder1  1.20355 -2.19489 -14.2017
LeftArm  61.3772 -51.7931 -109.439
LeftForeArm  96.344 -70.5925 -142.809
LeftHand  0.390058 7.8605 18.8591
RightShoulder  3.64768 6.02781 32.3881
RightArm  -1.65679 -16.0801 37.0506
RightForeArm  14.1348 13.0964 10.1618
RightHand  -0.231375 1.06817 -4.29953
LeftUpLeg  3.46815 12.7001 13.2599
LeftLeg  23.1085 5.59592 2.59421
LeftFoot  -8.90668 0.365012 -14.6099
LeftToes  -6.27559e-011 -2.10356e-011 8.24929e-012
311
root  0.472661 39.0617 48.5423 166.616 -74.7368 -175.212
RightUpLeg  -7.88954 -10.359 -19.2086
RightLeg  26.5731 9.175 4.76423
RightFoot  6.21814 -1.62701 10.7563
RightToes  -1.74623e-010 0 -2.59999e-017
Spine  4.91873 -3.66762 -20.1276
Spine1  15.9653 -9.56887 12.2738
HEad  -6.78218 -23.6298 19.0785
LeftShoulder1  1.17355 -2.19537 -13.6221
LeftArm  63.9124 -52.5309 -111.356
LeftForeArm  95.5901 -71.0028 -141.835
LeftHand  0.32992 7.45242 19.1553
RightShoulder  3.64983 6.04561 32.3391
RightArm  -0.319706 -16.3131 36.0905
RightForeArm  11.6687 13.585 10.088
RightHand  -0.233257 0.763584 -4.50886
LeftUpLeg  3.48272 11.6846 13.7075
LeftLeg  21.3465 5.87162 2.23038
LeftFoot  -8.36001 0.431233 -14.5869
LeftToes  -6.27559e-011 -2.10356e-011 8.24929e-012
312
root  0.273772 39.1375 48.3424 164.707 -75.6632 -172.857
RightUpLeg  -5.46429 -9.57156 -20.4413
RightLeg  19.0726 7.62161 2.74178
RightFoot  10.6077 -2.12362 11.3097
RightToes  -1.74623e-010 0 -2.59999e-017
Spine  4.35783 -3.6053 -19.8675
Spine1  15.6762 -9.47714 13.1161
HEad  -7.5403 -24.0866 20.0132
LeftShoulder1  1.19738 -2.2785 -13.7495
LeftArm  65.9814 -53.2689 -112.593
LeftForeArm  95.4452 -71.2124 -141.345
LeftHand  0.356993 7.61898 19.1413
RightShoulder  3.60647 6.03008 31.9443
RightArm  -0.914095 -15.1317 35.1209
RightForeArm  10.229 13.6455 10.0872
RightHand  -0.342376 0.551793 -6.77022
LeftUpLeg  3.59712 11.2114 14.3017
LeftLeg  20.313 5.35307 1.94967
LeftFoot  -8.08016 0.467089 -14.6485
LeftToes  -6.27559e-011 -2.10356e-011 8.24929e-012
313
root  0.0828362 39.1627 48.0196 162.831 -76.4988 -170.647
RightUpLeg  -3.31389 -9.66911 -21.5584
RightLeg  13.12 6.12632 1.39063
RightFoot  13.4994 -2.52874 11.8713
RightToes  -1.74623e-010 0 -2.59999e-017
Spine  3.63315 -3.73847 -18.9181
Spine1  15.8292 -9.346 13.1285
HEad  -8.12616 -24.3914 20.5308
LeftShoulder1  1.21253 -2.32619 -13.8495
LeftArm  66.9338 -53.3946 -112.683
LeftForeArm  95.1526 -71.5499 -140.521
LeftHand  0.389801 7.839 18.9955
RightShoulder  3.5334 5.95199 31.4805
RightArm  -2.0834 -13.343 34.4016
RightForeArm  9.81223 13.9261 9.83115
RightHand  -0.456784 0.368889 -9.28327
LeftUpLeg  3.75896 10.7783 15.0235
LeftLeg  19.5895 5.05354 1.93706
LeftFoot  -7.90395 0.493009 -14.7902
LeftToes  -6.27559e-011 -2.10356e-011 8.24929e-012
